<?xml version="1.0" encoding="UTF-8" standalone="no"?>
<svg width="400" height="400" viewBox="0 0 400 400" fill="none" xmlns="http://www.w3.org/2000/svg">
  <path d="M200 50C311.046 50 400 138.954 400 250C400 361.046 311.046 450 200 450C88.9543 450 0 361.046 0 250C0 138.954 88.9543 50 200 50Z" fill="#f0f0ff"/>
  <path d="M180 100C263.513 100 330 166.487 330 250C330 333.513 263.513 400 180 400C96.4873 400 30 333.513 30 250C30 166.487 96.4873 100 180 100Z" fill="#e0e1ff"/>
  <path d="M160 150C215.228 150 260 194.772 260 250C260 305.228 215.228 350 160 350C104.772 350 60 305.228 60 250C60 194.772 104.772 150 160 150Z" fill="#d1d2ff"/>
</svg>