<?xml version="1.0" encoding="UTF-8" standalone="no"?>
<svg width="800" height="400" viewBox="0 0 800 400" fill="none" xmlns="http://www.w3.org/2000/svg">
  <rect width="800" height="400" fill="#f9f9fc"/>
  <circle cx="400" cy="200" r="150" fill="#f0f0ff" stroke="#e0e1ff" stroke-width="2"/>
  <circle cx="400" cy="200" r="100" fill="#ffffff" stroke="#d1d2ff" stroke-width="1"/>
  <circle cx="400" cy="200" r="50" fill="#f8f8ff" stroke="#c1c2ff" stroke-width="1"/>
  
  <!-- Representing various writing forms beyond classroom -->
  <rect x="600" y="100" width="120" height="80" rx="5" fill="#ffffff" stroke="#e0e1ff" stroke-width="2"/>
  <path d="M620 120H700" stroke="#c1c2ff" stroke-width="1"/>
  <path d="M620 140H700" stroke="#c1c2ff" stroke-width="1"/>
  <path d="M620 160H680" stroke="#c1c2ff" stroke-width="1"/>
  
  <rect x="600" y="220" width="100" height="100" rx="50" fill="#ffffff" stroke="#d1d2ff" stroke-width="2"/>
  <path d="M630 270L670 270" stroke="#c1c2ff" stroke-width="2"/>
  <path d="M650 250L650 290" stroke="#c1c2ff" stroke-width="2"/>
  
  <rect x="100" y="100" width="150" height="80" rx="5" fill="#ffffff" stroke="#e0e1ff" stroke-width="2"/>
  <path d="M120 130H230" stroke="#c1c2ff" stroke-width="1"/>
  <path d="M120 150H210" stroke="#c1c2ff" stroke-width="1"/>
  <path d="M120 170H190" stroke="#c1c2ff" stroke-width="1"/>
  
  <rect x="80" y="220" width="100" height="120" rx="5" fill="#ffffff" stroke="#d1d2ff" stroke-width="2"/>
  <path d="M100 240H160" stroke="#c1c2ff" stroke-width="1"/>
  <path d="M100 260H140" stroke="#c1c2ff" stroke-width="1"/>
  <path d="M100 280H150" stroke="#c1c2ff" stroke-width="1"/>
  <path d="M100 300H130" stroke="#c1c2ff" stroke-width="1"/>
  <path d="M100 320H155" stroke="#c1c2ff" stroke-width="1"/>
  
  <!-- Lines connecting to center -->
  <path d="M400 200L600 140" stroke="#e0e1ff" stroke-width="1.5" stroke-dasharray="4 4"/>
  <path d="M400 200L600 270" stroke="#e0e1ff" stroke-width="1.5" stroke-dasharray="4 4"/>
  <path d="M400 200L175 140" stroke="#e0e1ff" stroke-width="1.5" stroke-dasharray="4 4"/>
  <path d="M400 200L130 280" stroke="#e0e1ff" stroke-width="1.5" stroke-dasharray="4 4"/>
</svg>