<?xml version="1.0" encoding="UTF-8" standalone="no"?>
<svg width="1200" height="600" viewBox="0 0 1200 600" fill="none" xmlns="http://www.w3.org/2000/svg">
  <rect width="1200" height="600" fill="#f8f9fc"/>
  <path d="M0 300C166.667 300 200 150 400 150C600 150 600 300 800 300C1000 300 1000 150 1200 150" stroke="#e0e1ff" stroke-width="30"/>
  <path d="M0 450C166.667 450 200 300 400 300C600 300 600 450 800 450C1000 450 1000 300 1200 300" stroke="#d1d2ff" stroke-width="25"/>
  <path d="M0 500C166.667 500 200 400 400 400C600 400 600 500 800 500C1000 500 1000 400 1200 400" stroke="#c1c2ff" stroke-width="20"/>
</svg>