<?xml version="1.0" encoding="UTF-8" standalone="no"?>
<svg width="800" height="400" viewBox="0 0 800 400" fill="none" xmlns="http://www.w3.org/2000/svg">
  <rect width="800" height="400" fill="#f9f9fc"/>
  
  <!-- Artistic background shapes -->
  <path d="M0 200C100 150 200 250 300 150C400 50 500 150 600 250C700 350 800 250 800 200" stroke="#e0e1ff" stroke-width="30" stroke-linecap="round"/>
  <path d="M0 300C100 250 200 350 300 250C400 150 500 250 600 350C700 400 800 350 800 300" stroke="#d1d2ff" stroke-width="20" stroke-linecap="round"/>
  
  <!-- Book stack -->
  <rect x="650" y="100" width="80" height="20" fill="#f0f0ff" stroke="#e0e1ff" stroke-width="1"/>
  <rect x="640" y="120" width="100" height="15" fill="#f8f8ff" stroke="#d1d2ff" stroke-width="1"/>
  <rect x="655" y="135" width="70" height="25" fill="#ffffff" stroke="#c1c2ff" stroke-width="1"/>
  
  <!-- Music notes -->
  <path d="M100 150C100 150 120 130 140 150C160 170 180 150 180 150" stroke="#e0e1ff" stroke-width="2"/>
  <circle cx="100" cy="150" r="8" fill="#d1d2ff"/>
  <circle cx="140" cy="150" r="8" fill="#d1d2ff"/>
  <circle cx="180" cy="150" r="8" fill="#d1d2ff"/>
  
  <!-- Artistic painting palette -->
  <circle cx="250" cy="300" r="40" fill="#f0f0ff" stroke="#e0e1ff" stroke-width="2"/>
  <circle cx="230" cy="280" r="10" fill="#d1d2ff"/>
  <circle cx="270" cy="280" r="10" fill="#c1c2ff"/>
  <circle cx="230" cy="320" r="10" fill="#e0e1ff"/>
  <circle cx="270" cy="320" r="10" fill="#f0f0ff"/>
  
  <!-- Camera -->
  <rect x="350" y="100" width="60" height="40" rx="5" fill="#f0f0ff" stroke="#e0e1ff" stroke-width="2"/>
  <circle cx="380" cy="120" r="15" fill="#ffffff" stroke="#d1d2ff" stroke-width="1"/>
  <circle cx="380" cy="120" r="8" fill="#f8f8ff" stroke="#c1c2ff" stroke-width="1"/>
  
  <!-- Drama masks -->
  <circle cx="500" cy="300" r="30" fill="#f0f0ff" stroke="#e0e1ff" stroke-width="2"/>
  <path d="M485 290C485 290 495 310 515 290" stroke="#d1d2ff" stroke-width="2"/>
  <path d="M485 310C485 310 495 290 515 310" stroke="#c1c2ff" stroke-width="2"/>
</svg>