<?xml version="1.0" encoding="UTF-8" standalone="no"?>
<svg width="500" height="500" viewBox="0 0 500 500" fill="none" xmlns="http://www.w3.org/2000/svg">
  <rect width="500" height="500" fill="#ffffff"/>
  <circle cx="50" cy="50" r="3" fill="#c1c2ff"/>
  <circle cx="150" cy="50" r="3" fill="#c1c2ff"/>
  <circle cx="250" cy="50" r="3" fill="#c1c2ff"/>
  <circle cx="350" cy="50" r="3" fill="#c1c2ff"/>
  <circle cx="450" cy="50" r="3" fill="#c1c2ff"/>
  <circle cx="50" cy="150" r="3" fill="#c1c2ff"/>
  <circle cx="150" cy="150" r="3" fill="#c1c2ff"/>
  <circle cx="250" cy="150" r="3" fill="#c1c2ff"/>
  <circle cx="350" cy="150" r="3" fill="#c1c2ff"/>
  <circle cx="450" cy="150" r="3" fill="#c1c2ff"/>
  <circle cx="50" cy="250" r="3" fill="#c1c2ff"/>
  <circle cx="150" cy="250" r="3" fill="#c1c2ff"/>
  <circle cx="250" cy="250" r="3" fill="#c1c2ff"/>
  <circle cx="350" cy="250" r="3" fill="#c1c2ff"/>
  <circle cx="450" cy="250" r="3" fill="#c1c2ff"/>
  <circle cx="50" cy="350" r="3" fill="#c1c2ff"/>
  <circle cx="150" cy="350" r="3" fill="#c1c2ff"/>
  <circle cx="250" cy="350" r="3" fill="#c1c2ff"/>
  <circle cx="350" cy="350" r="3" fill="#c1c2ff"/>
  <circle cx="450" cy="350" r="3" fill="#c1c2ff"/>
  <circle cx="50" cy="450" r="3" fill="#c1c2ff"/>
  <circle cx="150" cy="450" r="3" fill="#c1c2ff"/>
  <circle cx="250" cy="450" r="3" fill="#c1c2ff"/>
  <circle cx="350" cy="450" r="3" fill="#c1c2ff"/>
  <circle cx="450" cy="450" r="3" fill="#c1c2ff"/>
</svg>